# MagicaVoxel @ Ephtracy

# material
mtllib jellyfish.mtl
usemtl palette

# normals
vn -1 0 0
vn 1 0 0
vn 0 0 1
vn 0 0 -1
vn 0 -1 0
vn 0 1 0

# texcoords
vt 0.162109 0.5
vt 0.306641 0.5
vt 0.681641 0.5
vt 0.841797 0.5

# verts
v -3.5 5 2.5
v -3.5 5 -2.5
v -3.5 7 2.5
v -3.5 7 -2.5
v -2.5 1 0.5
v -2.5 1 -0.5
v -2.5 5 3.5
v -2.5 5 2.5
v -2.5 5 0.5
v -2.5 5 -0.5
v -2.5 5 -2.5
v -2.5 5 -3.5
v -2.5 7 3.5
v -2.5 7 2.5
v -2.5 7 -2.5
v -2.5 7 -3.5
v -2.5 8 2.5
v -2.5 8 -2.5
v -1.5 1 2.5
v -1.5 1 1.5
v -1.5 1 -1.5
v -1.5 1 -2.5
v -1.5 5 2.5
v -1.5 5 -2.5
v -1.5 6 2.5
v -1.5 6 1.5
v -1.5 6 -1.5
v -1.5 6 -2.5
v -0.5 1 0.5
v -0.5 1 -0.5
v -0.5 6 0.5
v -0.5 6 -0.5
v 0.5 1 2.5
v 0.5 1 1.5
v 0.5 1 -1.5
v 0.5 1 -2.5
v 0.5 5 2.5
v 0.5 5 -2.5
v 0.5 6 2.5
v 0.5 6 1.5
v 0.5 6 -1.5
v 0.5 6 -2.5
v 1.5 1 0.5
v 1.5 1 -0.5
v 1.5 6 0.5
v 1.5 6 -0.5
v 2.5 5 2.5
v 2.5 5 1.5
v 2.5 5 0.5
v 2.5 5 -0.5
v 2.5 5 -1.5
v 2.5 5 -2.5
v 2.5 6 2.5
v 2.5 6 1.5
v 2.5 6 0.5
v 2.5 6 -0.5
v 2.5 6 -1.5
v 2.5 6 -2.5
v -2.5 5 2.5
v -2.5 5 0.5
v -2.5 5 -0.5
v -2.5 5 -2.5
v -2.5 6 2.5
v -2.5 6 0.5
v -2.5 6 -0.5
v -2.5 6 -2.5
v -1.5 1 0.5
v -1.5 1 -0.5
v -1.5 6 0.5
v -1.5 6 -0.5
v -0.5 1 2.5
v -0.5 1 1.5
v -0.5 1 -1.5
v -0.5 1 -2.5
v -0.5 5 2.5
v -0.5 5 -2.5
v -0.5 6 2.5
v -0.5 6 1.5
v -0.5 6 -1.5
v -0.5 6 -2.5
v 0.5 1 0.5
v 0.5 1 -0.5
v 0.5 6 0.5
v 0.5 6 -0.5
v 1.5 1 2.5
v 1.5 1 1.5
v 1.5 1 -1.5
v 1.5 1 -2.5
v 1.5 5 2.5
v 1.5 5 -2.5
v 1.5 6 2.5
v 1.5 6 1.5
v 1.5 6 -1.5
v 1.5 6 -2.5
v 2.5 1 0.5
v 2.5 1 -0.5
v 2.5 5 3.5
v 2.5 5 2.5
v 2.5 5 0.5
v 2.5 5 -0.5
v 2.5 5 -2.5
v 2.5 5 -3.5
v 2.5 7 3.5
v 2.5 7 2.5
v 2.5 7 -2.5
v 2.5 7 -3.5
v 2.5 8 2.5
v 2.5 8 -2.5
v 3.5 5 2.5
v 3.5 5 1.5
v 3.5 5 0.5
v 3.5 5 -0.5
v 3.5 5 -1.5
v 3.5 5 -2.5
v 3.5 6 1.5
v 3.5 6 0.5
v 3.5 6 -0.5
v 3.5 6 -1.5
v 3.5 7 2.5
v 3.5 7 -2.5
v -2.5 5 3.5
v -2.5 7 3.5
v 2.5 5 3.5
v 2.5 7 3.5
v -3.5 5 2.5
v -3.5 7 2.5
v -2.5 5 2.5
v -2.5 7 2.5
v -2.5 8 2.5
v -1.5 1 2.5
v -1.5 5 2.5
v -0.5 1 2.5
v -0.5 5 2.5
v 0.5 1 2.5
v 0.5 5 2.5
v 1.5 1 2.5
v 1.5 5 2.5
v 2.5 5 2.5
v 2.5 7 2.5
v 2.5 8 2.5
v 3.5 5 2.5
v 3.5 7 2.5
v -2.5 1 0.5
v -2.5 5 0.5
v -2.5 6 0.5
v -1.5 1 0.5
v -1.5 6 0.5
v -0.5 1 0.5
v -0.5 6 0.5
v 0.5 1 0.5
v 0.5 6 0.5
v 1.5 1 0.5
v 1.5 6 0.5
v 2.5 1 0.5
v 2.5 5 0.5
v 2.5 6 0.5
v -1.5 1 -1.5
v -1.5 6 -1.5
v -0.5 1 -1.5
v -0.5 6 -1.5
v 0.5 1 -1.5
v 0.5 6 -1.5
v 1.5 1 -1.5
v 1.5 6 -1.5
v -2.5 5 -2.5
v -2.5 6 -2.5
v -1.5 5 -2.5
v -1.5 6 -2.5
v -0.5 5 -2.5
v -0.5 6 -2.5
v 0.5 5 -2.5
v 0.5 6 -2.5
v 1.5 5 -2.5
v 1.5 6 -2.5
v 2.5 5 -2.5
v 2.5 6 -2.5
v -2.5 5 2.5
v -2.5 6 2.5
v -1.5 5 2.5
v -1.5 6 2.5
v -0.5 5 2.5
v -0.5 6 2.5
v 0.5 5 2.5
v 0.5 6 2.5
v 1.5 5 2.5
v 1.5 6 2.5
v 2.5 5 2.5
v 2.5 6 2.5
v -1.5 1 1.5
v -1.5 6 1.5
v -0.5 1 1.5
v -0.5 6 1.5
v 0.5 1 1.5
v 0.5 6 1.5
v 1.5 1 1.5
v 1.5 6 1.5
v -2.5 1 -0.5
v -2.5 5 -0.5
v -2.5 6 -0.5
v -1.5 1 -0.5
v -1.5 6 -0.5
v -0.5 1 -0.5
v -0.5 6 -0.5
v 0.5 1 -0.5
v 0.5 6 -0.5
v 1.5 1 -0.5
v 1.5 6 -0.5
v 2.5 1 -0.5
v 2.5 5 -0.5
v 2.5 6 -0.5
v -3.5 5 -2.5
v -3.5 7 -2.5
v -2.5 5 -2.5
v -2.5 7 -2.5
v -2.5 8 -2.5
v -1.5 1 -2.5
v -1.5 5 -2.5
v -0.5 1 -2.5
v -0.5 5 -2.5
v 0.5 1 -2.5
v 0.5 5 -2.5
v 1.5 1 -2.5
v 1.5 5 -2.5
v 2.5 5 -2.5
v 2.5 7 -2.5
v 2.5 8 -2.5
v 3.5 5 -2.5
v 3.5 7 -2.5
v -2.5 5 -3.5
v -2.5 7 -3.5
v 2.5 5 -3.5
v 2.5 7 -3.5
v -1.5 1 2.5
v -0.5 1 2.5
v 0.5 1 2.5
v 1.5 1 2.5
v -1.5 1 1.5
v -0.5 1 1.5
v 0.5 1 1.5
v 1.5 1 1.5
v -2.5 1 0.5
v -1.5 1 0.5
v -0.5 1 0.5
v 0.5 1 0.5
v 1.5 1 0.5
v 2.5 1 0.5
v -2.5 1 -0.5
v -1.5 1 -0.5
v -0.5 1 -0.5
v 0.5 1 -0.5
v 1.5 1 -0.5
v 2.5 1 -0.5
v -1.5 1 -1.5
v -0.5 1 -1.5
v 0.5 1 -1.5
v 1.5 1 -1.5
v -1.5 1 -2.5
v -0.5 1 -2.5
v 0.5 1 -2.5
v 1.5 1 -2.5
v -2.5 5 3.5
v 2.5 5 3.5
v -3.5 5 2.5
v -2.5 5 2.5
v -1.5 5 2.5
v -0.5 5 2.5
v 0.5 5 2.5
v 1.5 5 2.5
v 2.5 5 2.5
v 3.5 5 2.5
v 2.5 5 1.5
v 3.5 5 1.5
v -2.5 5 0.5
v 2.5 5 0.5
v 3.5 5 0.5
v -2.5 5 -0.5
v 2.5 5 -0.5
v 3.5 5 -0.5
v 2.5 5 -1.5
v 3.5 5 -1.5
v -3.5 5 -2.5
v -2.5 5 -2.5
v -1.5 5 -2.5
v -0.5 5 -2.5
v 0.5 5 -2.5
v 1.5 5 -2.5
v 2.5 5 -2.5
v 3.5 5 -2.5
v -2.5 5 -3.5
v 2.5 5 -3.5
v -2.5 6 2.5
v -1.5 6 2.5
v -0.5 6 2.5
v 0.5 6 2.5
v 1.5 6 2.5
v 2.5 6 2.5
v -1.5 6 1.5
v -0.5 6 1.5
v 0.5 6 1.5
v 1.5 6 1.5
v 2.5 6 1.5
v -2.5 6 0.5
v -1.5 6 0.5
v -0.5 6 0.5
v 0.5 6 0.5
v 1.5 6 0.5
v 2.5 6 0.5
v -2.5 6 -0.5
v -1.5 6 -0.5
v -0.5 6 -0.5
v 0.5 6 -0.5
v 1.5 6 -0.5
v 2.5 6 -0.5
v -1.5 6 -1.5
v -0.5 6 -1.5
v 0.5 6 -1.5
v 1.5 6 -1.5
v 2.5 6 -1.5
v -2.5 6 -2.5
v -1.5 6 -2.5
v -0.5 6 -2.5
v 0.5 6 -2.5
v 1.5 6 -2.5
v 2.5 6 -2.5
v -2.5 7 3.5
v 2.5 7 3.5
v -3.5 7 2.5
v -2.5 7 2.5
v 2.5 7 2.5
v 3.5 7 2.5
v -3.5 7 -2.5
v -2.5 7 -2.5
v 2.5 7 -2.5
v 3.5 7 -2.5
v -2.5 7 -3.5
v 2.5 7 -3.5
v -2.5 8 2.5
v 2.5 8 2.5
v -2.5 8 -2.5
v 2.5 8 -2.5

# faces
f 3/3/1 2/3/1 1/3/1
f 4/3/1 2/3/1 3/3/1
f 9/4/1 6/4/1 5/4/1
f 10/4/1 6/4/1 9/4/1
f 13/3/1 8/3/1 7/3/1
f 14/3/1 8/3/1 13/3/1
f 15/3/1 12/3/1 11/3/1
f 16/3/1 12/3/1 15/3/1
f 17/3/1 15/3/1 14/3/1
f 18/3/1 15/3/1 17/3/1
f 23/4/1 20/4/1 19/4/1
f 24/4/1 22/4/1 21/4/1
f 25/4/1 20/4/1 23/4/1
f 26/4/1 20/4/1 25/4/1
f 27/4/1 24/4/1 21/4/1
f 28/4/1 24/4/1 27/4/1
f 31/4/1 30/4/1 29/4/1
f 32/4/1 30/4/1 31/4/1
f 37/4/1 34/4/1 33/4/1
f 38/4/1 36/4/1 35/4/1
f 39/4/1 34/4/1 37/4/1
f 40/4/1 34/4/1 39/4/1
f 41/4/1 38/4/1 35/4/1
f 42/4/1 38/4/1 41/4/1
f 45/4/1 44/4/1 43/4/1
f 46/4/1 44/4/1 45/4/1
f 53/3/1 48/3/1 47/3/1
f 54/1/1 49/1/1 48/1/1
f 54/3/1 48/3/1 53/3/1
f 55/1/1 49/1/1 54/1/1
f 56/1/1 51/1/1 50/1/1
f 57/3/1 52/3/1 51/3/1
f 57/1/1 51/1/1 56/1/1
f 58/3/1 52/3/1 57/3/1
f 59/3/2 60/3/2 63/3/2
f 63/3/2 60/3/2 64/3/2
f 61/3/2 62/3/2 65/3/2
f 65/3/2 62/3/2 66/3/2
f 67/4/2 68/4/2 69/4/2
f 69/4/2 68/4/2 70/4/2
f 71/4/2 72/4/2 75/4/2
f 73/4/2 74/4/2 76/4/2
f 75/4/2 72/4/2 77/4/2
f 77/4/2 72/4/2 78/4/2
f 73/4/2 76/4/2 79/4/2
f 79/4/2 76/4/2 80/4/2
f 81/4/2 82/4/2 83/4/2
f 83/4/2 82/4/2 84/4/2
f 85/4/2 86/4/2 89/4/2
f 87/4/2 88/4/2 90/4/2
f 89/4/2 86/4/2 91/4/2
f 91/4/2 86/4/2 92/4/2
f 87/4/2 90/4/2 93/4/2
f 93/4/2 90/4/2 94/4/2
f 95/4/2 96/4/2 99/4/2
f 99/4/2 96/4/2 100/4/2
f 97/3/2 98/3/2 103/3/2
f 103/3/2 98/3/2 104/3/2
f 101/3/2 102/3/2 105/3/2
f 105/3/2 102/3/2 106/3/2
f 104/3/2 105/3/2 107/3/2
f 107/3/2 105/3/2 108/3/2
f 109/3/2 110/3/2 115/3/2
f 110/1/2 111/1/2 115/1/2
f 111/3/2 112/3/2 116/3/2
f 115/1/2 111/1/2 116/1/2
f 112/1/2 113/1/2 117/1/2
f 116/3/2 112/3/2 117/3/2
f 113/3/2 114/3/2 118/3/2
f 117/1/2 113/1/2 118/1/2
f 116/3/2 117/3/2 119/3/2
f 115/3/2 116/3/2 119/3/2
f 117/3/2 118/3/2 119/3/2
f 109/3/2 115/3/2 119/3/2
f 118/3/2 114/3/2 120/3/2
f 119/3/2 118/3/2 120/3/2
f 123/3/3 122/3/3 121/3/3
f 124/3/3 122/3/3 123/3/3
f 127/3/3 126/3/3 125/3/3
f 128/3/3 126/3/3 127/3/3
f 132/4/3 131/4/3 130/4/3
f 133/4/3 131/4/3 132/4/3
f 136/4/3 135/4/3 134/4/3
f 137/4/3 135/4/3 136/4/3
f 139/3/3 129/3/3 128/3/3
f 140/3/3 129/3/3 139/3/3
f 141/3/3 139/3/3 138/3/3
f 142/3/3 139/3/3 141/3/3
f 146/4/3 144/4/3 143/4/3
f 146/4/3 145/4/3 144/4/3
f 147/4/3 145/4/3 146/4/3
f 150/4/3 149/4/3 148/4/3
f 151/4/3 149/4/3 150/4/3
f 154/4/3 153/4/3 152/4/3
f 155/4/3 153/4/3 154/4/3
f 156/4/3 153/4/3 155/4/3
f 159/4/3 158/4/3 157/4/3
f 160/4/3 158/4/3 159/4/3
f 163/4/3 162/4/3 161/4/3
f 164/4/3 162/4/3 163/4/3
f 167/3/3 166/3/3 165/3/3
f 168/3/3 166/3/3 167/3/3
f 171/3/3 170/3/3 169/3/3
f 172/3/3 170/3/3 171/3/3
f 175/3/3 174/3/3 173/3/3
f 176/3/3 174/3/3 175/3/3
f 177/3/4 178/3/4 179/3/4
f 179/3/4 178/3/4 180/3/4
f 181/3/4 182/3/4 183/3/4
f 183/3/4 182/3/4 184/3/4
f 185/3/4 186/3/4 187/3/4
f 187/3/4 186/3/4 188/3/4
f 189/4/4 190/4/4 191/4/4
f 191/4/4 190/4/4 192/4/4
f 193/4/4 194/4/4 195/4/4
f 195/4/4 194/4/4 196/4/4
f 197/4/4 198/4/4 200/4/4
f 198/4/4 199/4/4 200/4/4
f 200/4/4 199/4/4 201/4/4
f 202/4/4 203/4/4 204/4/4
f 204/4/4 203/4/4 205/4/4
f 206/4/4 207/4/4 208/4/4
f 208/4/4 207/4/4 209/4/4
f 209/4/4 207/4/4 210/4/4
f 211/3/4 212/3/4 213/3/4
f 213/3/4 212/3/4 214/3/4
f 216/4/4 217/4/4 218/4/4
f 218/4/4 217/4/4 219/4/4
f 220/4/4 221/4/4 222/4/4
f 222/4/4 221/4/4 223/4/4
f 214/3/4 215/3/4 225/3/4
f 225/3/4 215/3/4 226/3/4
f 224/3/4 225/3/4 227/3/4
f 227/3/4 225/3/4 228/3/4
f 229/3/4 230/3/4 231/3/4
f 231/3/4 230/3/4 232/3/4
f 237/4/5 234/4/5 233/4/5
f 238/4/5 234/4/5 237/4/5
f 239/4/5 236/4/5 235/4/5
f 240/4/5 236/4/5 239/4/5
f 247/4/5 242/4/5 241/4/5
f 248/4/5 242/4/5 247/4/5
f 249/4/5 244/4/5 243/4/5
f 250/4/5 244/4/5 249/4/5
f 251/4/5 246/4/5 245/4/5
f 252/4/5 246/4/5 251/4/5
f 257/4/5 254/4/5 253/4/5
f 258/4/5 254/4/5 257/4/5
f 259/4/5 256/4/5 255/4/5
f 260/4/5 256/4/5 259/4/5
f 264/3/5 262/3/5 261/3/5
f 265/3/5 262/3/5 264/3/5
f 266/3/5 262/3/5 265/3/5
f 267/3/5 262/3/5 266/3/5
f 268/3/5 262/3/5 267/3/5
f 269/3/5 262/3/5 268/3/5
f 271/3/5 270/3/5 269/3/5
f 272/3/5 270/3/5 271/3/5
f 273/3/5 264/3/5 263/3/5
f 274/1/5 272/1/5 271/1/5
f 275/1/5 272/1/5 274/1/5
f 276/3/5 273/3/5 263/3/5
f 277/3/5 275/3/5 274/3/5
f 278/3/5 275/3/5 277/3/5
f 279/1/5 278/1/5 277/1/5
f 280/1/5 278/1/5 279/1/5
f 281/3/5 276/3/5 263/3/5
f 282/3/5 276/3/5 281/3/5
f 287/3/5 280/3/5 279/3/5
f 288/3/5 280/3/5 287/3/5
f 289/3/5 286/3/5 285/3/5
f 289/3/5 287/3/5 286/3/5
f 289/3/5 283/3/5 282/3/5
f 289/3/5 285/3/5 284/3/5
f 289/3/5 284/3/5 283/3/5
f 290/3/5 287/3/5 289/3/5
f 297/4/5 292/4/5 291/4/5
f 298/4/5 294/4/5 293/4/5
f 299/4/5 294/4/5 298/4/5
f 300/4/5 296/4/5 295/4/5
f 301/4/5 296/4/5 300/4/5
f 302/4/5 299/4/5 298/4/5
f 302/4/5 297/4/5 291/4/5
f 302/4/5 301/4/5 300/4/5
f 302/4/5 300/4/5 299/4/5
f 302/4/5 298/4/5 297/4/5
f 303/4/5 301/4/5 302/4/5
f 304/4/5 301/4/5 303/4/5
f 305/4/5 301/4/5 304/4/5
f 306/4/5 301/4/5 305/4/5
f 307/4/5 301/4/5 306/4/5
f 309/4/5 304/4/5 303/4/5
f 310/4/5 304/4/5 309/4/5
f 311/4/5 306/4/5 305/4/5
f 312/4/5 306/4/5 311/4/5
f 314/4/5 310/4/5 309/4/5
f 314/4/5 313/4/5 312/4/5
f 314/4/5 312/4/5 311/4/5
f 314/4/5 311/4/5 310/4/5
f 314/4/5 309/4/5 308/4/5
f 315/4/5 313/4/5 314/4/5
f 316/4/5 313/4/5 315/4/5
f 317/4/5 313/4/5 316/4/5
f 318/4/5 313/4/5 317/4/5
f 319/4/5 314/4/5 308/4/5
f 320/4/5 314/4/5 319/4/5
f 321/4/5 316/4/5 315/4/5
f 322/4/5 316/4/5 321/4/5
f 323/4/5 318/4/5 317/4/5
f 324/4/5 318/4/5 323/4/5
f 325/3/6 326/3/6 328/3/6
f 328/3/6 326/3/6 329/3/6
f 327/3/6 328/3/6 331/3/6
f 331/3/6 328/3/6 332/3/6
f 329/3/6 330/3/6 333/3/6
f 333/3/6 330/3/6 334/3/6
f 332/3/6 333/3/6 335/3/6
f 335/3/6 333/3/6 336/3/6
f 337/3/6 338/3/6 339/3/6
f 339/3/6 338/3/6 340/3/6
